<svg width="3926" height="1001" viewBox="0 0 3926 1001" fill="none" xmlns="http://www.w3.org/2000/svg">
<rect width="1000.12" height="1000.12" rx="120" fill="#27374D"/>
<path d="M200.77 850.117H325.917V361.334L599.825 513.636V371.959L200.77 150V850.117Z" fill="#DDE6ED" stroke="#DDE6ED" stroke-width="2.36127"/>
<path d="M799.354 150H674.206L674.206 638.783L400.298 486.481L400.298 628.157L799.354 850.117L799.354 150Z" fill="#DDE6ED" stroke="#DDE6ED" stroke-width="2.36127"/>
<path d="M1503.96 866.146C1450.43 866.146 1400.97 857.067 1355.57 838.91C1310.49 820.44 1271.2 794.769 1237.71 761.899C1204.52 728.715 1178.7 689.896 1160.23 645.442C1142.07 600.988 1132.99 552.465 1132.99 499.871C1132.99 447.278 1142.07 398.754 1160.23 354.3C1178.7 309.534 1204.52 270.715 1237.71 237.844C1271.2 204.66 1310.49 178.989 1355.57 160.832C1400.97 142.675 1450.43 133.596 1503.96 133.596C1557.49 133.596 1606.8 142.832 1651.88 161.302C1696.96 179.459 1735.93 204.973 1768.81 237.844C1801.99 270.715 1827.82 309.377 1846.29 353.831C1864.76 398.285 1873.99 446.965 1873.99 499.871C1873.99 552.465 1864.76 601.145 1846.29 645.912C1828.13 690.365 1802.46 729.028 1769.28 761.899C1736.09 794.769 1696.96 820.44 1651.88 838.91C1606.8 857.067 1557.49 866.146 1503.96 866.146ZM1503.96 739.828C1535.58 739.828 1564.85 733.724 1591.77 721.514C1619.01 709.305 1642.64 692.4 1662.68 670.799C1682.72 648.886 1698.21 623.528 1709.17 594.727C1720.44 565.613 1726.07 533.994 1726.07 499.871C1726.07 465.748 1720.44 434.13 1709.17 405.015C1698.21 375.901 1682.72 350.544 1662.68 328.943C1642.64 307.029 1619.01 290.124 1591.77 278.228C1564.85 266.019 1535.58 259.914 1503.96 259.914C1472.03 259.914 1442.45 266.019 1415.21 278.228C1388.29 290.124 1364.65 307.029 1344.3 328.943C1324.27 350.544 1308.61 375.901 1297.34 405.015C1286.39 434.13 1280.91 465.748 1280.91 499.871C1280.91 533.994 1286.39 565.613 1297.34 594.727C1308.61 623.841 1324.27 649.355 1344.3 671.269C1364.65 692.87 1388.29 709.775 1415.21 721.984C1442.45 733.88 1472.03 739.828 1503.96 739.828ZM2060.32 852.059V147.684H2320.94C2396.7 147.684 2455.4 163.806 2497.04 196.051C2538.98 227.983 2559.96 272.906 2559.96 330.821C2559.96 366.197 2551.66 397.502 2535.07 424.738C2518.48 451.661 2496.1 472.166 2467.92 486.253C2507.99 498.149 2539.14 518.655 2561.37 547.769C2583.91 576.57 2595.18 611.945 2595.18 653.895C2595.18 693.966 2585.32 728.871 2565.59 758.612C2546.18 788.039 2518.64 811.048 2482.95 827.64C2447.57 843.919 2405.94 852.059 2358.04 852.059H2060.32ZM2204.95 442.582H2312.96C2345.2 442.582 2370.72 434.912 2389.5 419.573C2408.28 404.233 2417.68 383.415 2417.68 357.118C2417.68 331.447 2408.13 311.255 2389.03 296.542C2370.25 281.515 2344.11 274.002 2310.61 274.002H2204.95V442.582ZM2204.95 725.741H2321.88C2347.55 725.741 2369.78 722.141 2388.56 714.94C2407.34 707.427 2421.75 696.94 2431.76 683.478C2442.09 669.704 2447.26 653.738 2447.26 635.581C2447.26 617.424 2442.56 601.927 2433.17 589.092C2424.09 576.257 2410.79 566.552 2393.26 559.978C2375.73 553.091 2354.91 549.647 2330.8 549.647H2204.95V725.741ZM3239.35 852.059H2779.16V147.684H2923.79V725.741H3239.35V852.059ZM3412.53 852.059V147.684H3867.09V274.002H3557.17V434.13H3847.84V560.917H3557.17V725.741H3871.79V852.059H3412.53Z" fill="#27374D"/>
</svg>
